<?xml version="1.0" encoding="utf-8"?>
<!-- Generator: Adobe Illustrator 25.2.0, SVG Export Plug-In . SVG Version: 6.00 Build 0)  -->
<svg version="1.1" id="レイヤー_1" xmlns="http://www.w3.org/2000/svg" xmlns:xlink="http://www.w3.org/1999/xlink" x="0px"
	 y="0px" viewBox="0 0 550 550" style="enable-background:new 0 0 550 550;" xml:space="preserve">
<style type="text/css">
	.st0{fill:#FCE021;}
	.st1{fill:#FF6699;}
	.st2{fill:#FFFFFF;}
	.st3{font-family:'ArialMT';}
	.st4{font-size:209.3204px;}
</style>
<path class="st0" d="M257.98,254.69c151.44-272.92,285.84-30.68-17.02-30.68c302.86,0,168.46,242.24,17.02-30.68
	c151.44,272.92-117.39,272.92,34.04,0c-151.44,272.92-285.84,30.68,17.02,30.68c-302.86,0-168.46-242.24-17.02,30.68
	C140.59-18.23,409.41-18.23,257.98,254.69z"/>
<path class="st0" d="M269.09,261.52c52.6-310.34,258.52-130.55-26.08-22.77c284.6-107.79,237.92,167.68,5.91-34.89
	c232.01,202.57-20.6,298.23,31.99-12.11c-52.6,310.34-258.52,130.55,26.08,22.77C22.39,322.29,69.07,46.84,301.08,249.4
	C69.07,46.84,321.68-48.83,269.09,261.52z"/>
<path class="st0" d="M280.91,258.9c-52.59-310.34,200.02-214.68-31.99-12.11c232.01-202.57,278.69,72.9-5.91-34.89
	c284.6,107.79,78.67,287.58,26.08-22.77c52.59,310.34-200.02,214.68,31.99,12.11c-232.01,202.57-278.69-72.9,5.91,34.89
	C22.39,128.35,228.32-51.45,280.91,258.9z"/>
<ellipse class="st0" cx="274.16" cy="224.73" rx="109.1" ry="113.52"/>
<path class="st0" d="M245.23,382.79c-20.6,24.08-45.78,15.38-47.95-15.66c-2.89,1.63-5.71,2.9-8.43,3.82l-53.43,96.29l0.77,0.46
	l51.51-30.95v61.9l0.77,0.46l60.32-108.7C247.5,388.14,246.3,385.6,245.23,382.79z"/>
<path class="st0" d="M351.18,365.48c0.39,35.55-26.98,46.42-48.8,19.98c-0.88,2.1-1.84,4.05-2.86,5.84L359.83,500l0.77-0.46v-61.9
	l51.52,30.95l0.77-0.46l-55.25-99.58C355.54,367.74,353.38,366.71,351.18,365.48z"/>
<path class="st1" d="M275,89.09c-73.23,0-132.6,61.77-132.6,137.97S201.77,365.04,275,365.04s132.6-61.77,132.6-137.97
	S348.23,89.09,275,89.09z M274.58,354.56c-67.44,0-122.11-56.88-122.11-127.06s54.67-127.06,122.11-127.06
	s122.11,56.88,122.11,127.06S342.02,354.56,274.58,354.56z"/>
<text transform="matrix(0.9611 0 0 1 220.7188 304.1211)" class="st2 st3 st4">2</text>
</svg>
