<?xml version="1.0" encoding="utf-8"?>
<!-- Generator: Adobe Illustrator 25.2.0, SVG Export Plug-In . SVG Version: 6.00 Build 0)  -->
<svg version="1.1" id="レイヤー_1" xmlns="http://www.w3.org/2000/svg" xmlns:xlink="http://www.w3.org/1999/xlink" x="0px"
	 y="0px" viewBox="0 0 500 500" style="enable-background:new 0 0 500 500;" xml:space="preserve">
<style type="text/css">
	.st0{fill:#FCEE21;}
	.st1{fill:#4D4D4D;}
	.st2{fill:none;stroke:#4D4D4D;stroke-miterlimit:10;}
	.st3{font-family:'FontAwesome5Free-Solid';}
	.st4{font-size:32.7363px;}
	.st5{font-family:'KozGoPr6N-Regular-83pv-RKSJ-H';}
	.st6{font-size:21.3274px;}
</style>
<g>
	<polygon class="st0" points="95.88,338.09 95.88,160.76 249.43,72.11 402.99,160.76 402.99,338.09 249.43,426.74 	"/>
	<path class="st1" d="M249.43,72.8l152.96,88.32v176.63l-152.96,88.31L96.47,337.73V161.11L249.43,72.8 M249.43,71.43L95.28,160.42
		v178l154.15,89.01l154.15-88.99v-178L249.43,71.43L249.43,71.43z"/>
</g>
<g>
	<line class="st2" x1="94.81" y1="159.97" x2="404.06" y2="338.88"/>
</g>
<line class="st2" x1="250.03" y1="71.11" x2="248.84" y2="427.75"/>
<line class="st2" x1="94.81" y1="338.88" x2="404.06" y2="159.97"/>
<circle class="st2" cx="249.43" cy="249.43" r="142.18"/>
<circle class="st2" cx="249.43" cy="249.43" r="71.09"/>
<circle class="st2" cx="249.43" cy="249.43" r="35.55"/>
<circle class="st2" cx="249.43" cy="249.43" r="106.64"/>
<g>
	<path class="st1" d="M249.43,72.88c47.16,0,91.49,18.37,124.84,51.71s51.71,77.68,51.71,124.84s-18.37,91.49-51.71,124.84
		s-77.68,51.71-124.84,51.71s-91.49-18.37-124.84-51.71s-51.71-77.68-51.71-124.84s18.37-91.49,51.71-124.84
		S202.28,72.88,249.43,72.88 M249.43,71.7c-98.15,0-177.73,79.57-177.73,177.73s79.57,177.73,177.73,177.73
		s177.73-79.57,177.73-177.73S347.59,71.7,249.43,71.7L249.43,71.7z"/>
</g>
<text transform="matrix(1 0 0 1 228.9453 25.9082)" class="st3 st4"></text>
<text transform="matrix(1 0 0 1 17.8843 128.9653)" class="st3 st4"></text>
<text transform="matrix(1 0 0 1 437.2031 128.9653)" class="st3 st4"></text>
<text transform="matrix(1 0 0 1 29.5391 325.457)" class="st3 st4"></text>
<text transform="matrix(1 0 0 1 228.9453 469.832)" class="st3 st4"></text>
<text transform="matrix(1 0 0 1 448.6787 325.5078)" class="st3 st4"></text>
<text transform="matrix(1 0 0 1 198.8286 60.5522)" class="st5 st6">取引コスト</text>
<text transform="matrix(1 0 0 1 419.4297 163.9038)" class="st5 st6">アプリ</text>
<text transform="matrix(1 0 0 1 425.7266 369.9316)" class="st5 st6">サポート</text>
<text transform="matrix(1 0 0 1 191.8633 502.8945)" class="st5 st6">キャンペーン</text>
<text transform="matrix(1 0 0 1 0.6826 364.7344)" class="st5 st6">初心者</text>
<text transform="matrix(1 0 0 1 0.6826 390.3271)" class="st5 st6">おすすめ等</text>
<text transform="matrix(1 0 0 1 0 167.5977)" class="st5 st6">情報量</text>
</svg>
